<svg width="920" height="260" viewBox="0 0 920 260" fill="none" xmlns="http://www.w3.org/2000/svg">
  <defs>
    <linearGradient id="g1" x1="0" y1="0" x2="920" y2="260" gradientUnits="userSpaceOnUse">
      <stop stop-color="#1E4D69"/>
      <stop offset="1" stop-color="#2F7EAF"/>
    </linearGradient>
    <linearGradient id="g2" x1="0" y1="0" x2="1" y2="1">
      <stop stop-color="#FFFFFF" stop-opacity="0.22"/>
      <stop offset="1" stop-color="#FFFFFF" stop-opacity="0.08"/>
    </linearGradient>
    <filter id="blur" x="-40" y="-40" width="1000" height="340" filterUnits="userSpaceOnUse" color-interpolation-filters="sRGB">
      <feGaussianBlur stdDeviation="10"/>
    </filter>
  </defs>

  <rect width="920" height="260" rx="22" fill="url(#g1)"/>

  <g opacity="0.9" filter="url(#blur)">
    <circle cx="740" cy="70" r="92" fill="url(#g2)"/>
    <circle cx="865" cy="170" r="120" fill="url(#g2)"/>
    <circle cx="620" cy="215" r="70" fill="url(#g2)"/>
  </g>

  <g opacity="0.85">
    <path d="M585 70C585 56.1929 596.193 45 610 45H835C848.807 45 860 56.1929 860 70V195C860 208.807 848.807 220 835 220H610C596.193 220 585 208.807 585 195V70Z" fill="white" fill-opacity="0.08"/>
    <path d="M610 86H835" stroke="white" stroke-opacity="0.25" stroke-width="2" stroke-linecap="round"/>
    <path d="M610 120H785" stroke="white" stroke-opacity="0.22" stroke-width="10" stroke-linecap="round"/>
    <path d="M610 146H820" stroke="white" stroke-opacity="0.22" stroke-width="10" stroke-linecap="round"/>
    <path d="M610 172H760" stroke="white" stroke-opacity="0.22" stroke-width="10" stroke-linecap="round"/>
    <circle cx="815" cy="120" r="10" fill="white" fill-opacity="0.26"/>
    <circle cx="850" cy="172" r="10" fill="white" fill-opacity="0.26"/>
  </g>
</svg>

