<svg width="860" height="680" viewBox="0 0 860 680" fill="none" xmlns="http://www.w3.org/2000/svg">
  <defs>
    <linearGradient id="bg" x1="122" y1="34" x2="786" y2="646" gradientUnits="userSpaceOnUse">
      <stop stop-color="#EAF6FF"/>
      <stop offset="0.55" stop-color="#F1F7FF"/>
      <stop offset="1" stop-color="#FFF1F6"/>
    </linearGradient>
    <linearGradient id="a" x1="250" y1="120" x2="600" y2="520" gradientUnits="userSpaceOnUse">
      <stop stop-color="#2F7EAF"/>
      <stop offset="1" stop-color="#1E4D69"/>
    </linearGradient>
    <linearGradient id="b" x1="0" y1="0" x2="1" y2="1">
      <stop stop-color="#0EA5E9"/>
      <stop offset="1" stop-color="#2563EB"/>
    </linearGradient>
    <linearGradient id="c" x1="0" y1="0" x2="1" y2="1">
      <stop stop-color="#F59E0B"/>
      <stop offset="1" stop-color="#EF4444"/>
    </linearGradient>
    <filter id="sh" x="-40" y="-40" width="940" height="760" filterUnits="userSpaceOnUse" color-interpolation-filters="sRGB">
      <feDropShadow dx="0" dy="22" stdDeviation="18" flood-color="#0B2231" flood-opacity="0.16"/>
    </filter>
    <filter id="soft" x="-60" y="-60" width="980" height="800" filterUnits="userSpaceOnUse" color-interpolation-filters="sRGB">
      <feGaussianBlur stdDeviation="18"/>
    </filter>
  </defs>

  <rect x="46" y="44" width="768" height="592" rx="28" fill="url(#bg)" stroke="rgba(30,77,105,0.10)" stroke-width="2"/>

  <!-- background blobs -->
  <g filter="url(#soft)" opacity="0.75">
    <circle cx="230" cy="190" r="90" fill="#CFFAFE"/>
    <circle cx="650" cy="170" r="110" fill="#DBEAFE"/>
    <circle cx="640" cy="520" r="120" fill="#FFE4E6"/>
  </g>

  <!-- main mock dashboard -->
  <g filter="url(#sh)">
    <rect x="142" y="140" width="576" height="400" rx="22" fill="white"/>
    <rect x="142" y="140" width="576" height="56" rx="22" fill="url(#a)"/>
    <circle cx="178" cy="168" r="7" fill="white" fill-opacity="0.75"/>
    <circle cx="202" cy="168" r="7" fill="white" fill-opacity="0.55"/>
    <circle cx="226" cy="168" r="7" fill="white" fill-opacity="0.35"/>

    <!-- sidebar -->
    <rect x="166" y="216" width="160" height="300" rx="16" fill="#F8FAFC" stroke="#EEF2F7"/>
    <rect x="184" y="238" width="124" height="14" rx="7" fill="#CBD5E1"/>
    <rect x="184" y="268" width="96" height="12" rx="6" fill="#E2E8F0"/>
    <rect x="184" y="292" width="112" height="12" rx="6" fill="#E2E8F0"/>
    <rect x="184" y="316" width="88" height="12" rx="6" fill="#E2E8F0"/>
    <rect x="184" y="340" width="104" height="12" rx="6" fill="#E2E8F0"/>

    <!-- content cards -->
    <rect x="346" y="216" width="352" height="96" rx="16" fill="#FBFCFE" stroke="#EEF2F7"/>
    <rect x="366" y="238" width="160" height="14" rx="7" fill="#0EA5E9" fill-opacity="0.30"/>
    <rect x="366" y="264" width="280" height="12" rx="6" fill="#E2E8F0"/>
    <rect x="366" y="286" width="220" height="12" rx="6" fill="#E2E8F0"/>

    <rect x="346" y="328" width="170" height="188" rx="16" fill="#FBFCFE" stroke="#EEF2F7"/>
    <rect x="366" y="350" width="110" height="14" rx="7" fill="#2563EB" fill-opacity="0.24"/>
    <rect x="366" y="384" width="130" height="10" rx="5" fill="#E2E8F0"/>
    <rect x="366" y="404" width="90" height="10" rx="5" fill="#E2E8F0"/>
    <rect x="366" y="438" width="138" height="16" rx="8" fill="url(#b)"/>
    <rect x="366" y="466" width="120" height="12" rx="6" fill="#E2E8F0"/>

    <rect x="528" y="328" width="170" height="188" rx="16" fill="#FBFCFE" stroke="#EEF2F7"/>
    <rect x="548" y="350" width="108" height="14" rx="7" fill="#F59E0B" fill-opacity="0.26"/>
    <rect x="548" y="384" width="124" height="10" rx="5" fill="#E2E8F0"/>
    <rect x="548" y="404" width="98" height="10" rx="5" fill="#E2E8F0"/>
    <rect x="548" y="438" width="138" height="16" rx="8" fill="url(#c)"/>
    <rect x="548" y="466" width="120" height="12" rx="6" fill="#E2E8F0"/>
  </g>

  <!-- subtle corner sparkles -->
  <g opacity="0.6">
    <path d="M740 104l7 14 14 7-14 7-7 14-7-14-14-7 14-7 7-14Z" fill="#0EA5E9"/>
    <path d="M132 560l6 12 12 6-12 6-6 12-6-12-12-6 12-6 6-12Z" fill="#F59E0B"/>
  </g>
</svg>

